<svg xmlns="http://www.w3.org/2000/svg" xmlns:xlink="http://www.w3.org/1999/xlink" width="27" height="54" version="1.1" viewBox="0 0 27 54"><title>Artboard 8</title><desc>Created with Sketch.</desc><g id="Page-1" fill="none" fill-rule="evenodd" stroke="none" stroke-width="1"><g id="Artboard-8"><g id="Imported-Layers" transform="translate(4.000000, 3.000000)"><path id="Fill-1" fill="#1A1918" d="M6,0.123 L0.403,5.322 L6,10.338 L6,8 L18,8 L18,3 L6,3 L6,0.123 Z"/><path id="Fill-2" fill="#1A1919" d="M18.597,14.178 L13,9.162 L13,12 L1,12 L1,17 L13,17 L13,19.377 L18.597,14.178"/></g><g id="Imported-Layers" fill="#BD1900" transform="translate(4.000000, 30.000000)"><path id="Fill-1" d="M6,0.123 L0.403,5.322 L6,10.338 L6,8 L18,8 L18,3 L6,3 L6,0.123 Z"/><path id="Fill-2" d="M18.597,14.178 L13,9.162 L13,12 L1,12 L1,17 L13,17 L13,19.377 L18.597,14.178"/></g></g></g></svg>