<svg xmlns="http://www.w3.org/2000/svg" xmlns:xlink="http://www.w3.org/1999/xlink" width="29" height="29" version="1.1" viewBox="0 0 29 29"><title>Group</title><desc>Created with Sketch.</desc><g id="Page-1" fill="none" fill-rule="evenodd" stroke="none" stroke-width="1"><g id="HD-Multisig-4" transform="translate(-680.000000, -496.000000)"><g id="Group" transform="translate(681.000000, 496.510000)"><path id="Fill-1" fill="#F3F4F6" d="M0.160714286,0.318188037 L26.8392857,0.318188037 L26.8392857,26.9967595 L0.160714286,26.9967595 L0.160714286,0.318188037 Z"/><path id="Stroke-2" stroke="#999" d="M0.160714286,0.318188037 L26.8392857,0.318188037 L26.8392857,26.9967595 L0.160714286,26.9967595 L0.160714286,0.318188037 Z"/><path id="Fill-17" fill="#999" d="M19.404,14.691188 L22.9397143,14.691188 L22.9397143,16.2983309 L19.404,16.2983309 L19.404,14.691188 Z"/><path id="Fill-18" fill="#999" d="M7.44460714,7.79204518 L9.15814286,7.79204518 L9.15814286,9.50558089 L7.44460714,9.50558089 L7.44460714,7.79204518 Z"/><path id="Fill-19" fill="#999" d="M3.97542857,13.0840452 L12.654,13.0840452 L12.654,4.40547375 L3.97542857,4.40547375 L3.97542857,13.0840452 Z M5.904,6.33404518 L10.7254286,6.33404518 L10.7254286,11.1554738 L5.904,11.1554738 L5.904,6.33404518 Z"/><path id="Fill-20" fill="#999" d="M17.5966071,7.79204518 L19.3101429,7.79204518 L19.3101429,9.50558089 L17.5966071,9.50558089 L17.5966071,7.79204518 Z"/><path id="Fill-21" fill="#999" d="M13.9397143,13.0840452 L22.6182857,13.0840452 L22.6182857,4.40547375 L13.9397143,4.40547375 L13.9397143,13.0840452 Z M15.8682857,6.33404518 L20.6897143,6.33404518 L20.6897143,11.1554738 L15.8682857,11.1554738 L15.8682857,6.33404518 Z"/><path id="Fill-22" fill="#999" d="M7.48735714,17.8157952 L9.20089286,17.8157952 L9.20089286,19.5293309 L7.48735714,19.5293309 L7.48735714,17.8157952 Z"/><path id="Fill-23" fill="#999" d="M3.97542857,23.0483309 L12.654,23.0483309 L12.654,14.691188 L3.97542857,14.691188 L3.97542857,23.0483309 Z M5.904,16.2983309 L10.7254286,16.2983309 L10.7254286,21.1197595 L5.904,21.1197595 L5.904,16.2983309 Z"/><path id="Fill-24" fill="#999" d="M13.9397143,19.191188 L15.8682857,19.191188 L15.8682857,23.0483309 L13.9397143,23.0483309 L13.9397143,19.191188 Z"/><path id="Fill-25" fill="#999" d="M19.2844286,19.4676166 L20.9979643,19.4676166 L20.9979643,21.1811523 L19.2844286,21.1811523 L19.2844286,19.4676166 Z"/><path id="Fill-26" fill="#999" d="M21.0111429,17.9054738 L21.0111429,21.1197595 L17.4754286,21.1197595 L17.4754286,23.0483309 L22.9397143,23.0483309 L22.9397143,17.9054738 L21.0111429,17.9054738"/><path id="Fill-27" fill="#999" d="M13.9397143,14.691188 L17.4754286,14.691188 L17.4754286,17.9054738 L13.9397143,17.9054738 L13.9397143,14.691188 Z"/></g></g></g></svg>