<svg xmlns="http://www.w3.org/2000/svg" xmlns:xlink="http://www.w3.org/1999/xlink" width="22" height="49" version="1.1" viewBox="0 0 22 49"><title>Oval 89 + Rectangle 383 + Rectangle 385 + Oval 89 + Rectangle 383 + Rectangle 385</title><desc>Created with Sketch.</desc><g id="Page-1" fill="none" fill-rule="evenodd" stroke="none" stroke-width="1"><g id="HD-Multisig-4" transform="translate(-456.000000, -307.000000)"><g id="Oval-89-+-Rectangle-383-+-Rectangle-385-+-Oval-89-+-Rectangle-383-+-Rectangle-385" transform="translate(456.000000, 308.000000)"><g id="Oval-89-+-Rectangle-383-+-Rectangle-385" stroke="#979797" transform="translate(0.500000, 0.000000)"><circle id="Oval-89" cx="10.5" cy="10.687" r="10.5" fill="#F7F6F6"/><g id="Rectangle-383-+-Rectangle-385" transform="translate(4.000000, 6.000000)"><path id="Rectangle-383" d="M11,2 L11,8 L5,8" transform="translate(8.000000, 5.000000) rotate(-45.000000) translate(-8.000000, -5.000000)"/><path id="Rectangle-385" d="M8,2 L8,8 L2,8" transform="translate(5.000000, 5.000000) scale(-1, 1) rotate(-45.000000) translate(-5.000000, -5.000000)"/></g></g><g id="Oval-89-+-Rectangle-383-+-Rectangle-385" stroke="#BD1900" transform="translate(0.500000, 25.693500)"><circle id="Oval-89" cx="10.5" cy="10.687" r="10.5" fill="#F7F6F6"/><g id="Rectangle-383-+-Rectangle-385" transform="translate(4.000000, 6.000000)"><path id="Rectangle-383" d="M11,2 L11,8 L5,8" transform="translate(8.000000, 5.000000) rotate(-45.000000) translate(-8.000000, -5.000000)"/><path id="Rectangle-385" d="M8,2 L8,8 L2,8" transform="translate(5.000000, 5.000000) scale(-1, 1) rotate(-45.000000) translate(-5.000000, -5.000000)"/></g></g></g></g></g></svg>