<svg xmlns="http://www.w3.org/2000/svg" xmlns:xlink="http://www.w3.org/1999/xlink" width="17" height="31" version="1.1" viewBox="0 0 17 31"><title>Fill 7 + Stroke 8 + Stroke 9</title><desc>Created with Sketch.</desc><g id="Page-1" fill="none" fill-rule="evenodd" stroke="none" stroke-width="1"><g id="HD-Multisig-4" transform="translate(-676.000000, -373.000000)"><g id="Fill-7-+-Stroke-8-+-Stroke-9" transform="translate(676.964466, 373.500000)"><path id="Fill-7" fill="#E1E4E4" d="M15.009,7.908 C14.96,3.836 11.62,0.574 7.548,0.623 C3.475,0.672 0.214,4.013 0.263,8.085 C0.302,11.365 2.479,14.116 5.451,15.038 L5.624,27.802 L8.712,29.822 L10.984,27.288 L9.954,24.721 L10.932,22.978 L9.906,20.784 L10.877,18.415 L9.853,16.38 L10.017,14.973 C12.952,13.972 15.049,11.178 15.009,7.908 L15.009,7.908 Z M7.638,8.194 C6.538,8.207 5.636,7.326 5.622,6.225 C5.609,5.125 6.49,4.222 7.591,4.209 C8.691,4.196 9.594,5.077 9.607,6.177 C9.62,7.278 8.739,8.18 7.638,8.194 L7.638,8.194 Z"/><path id="Stroke-8" stroke="#858D93" d="M15.009,7.908 C14.96,3.836 11.62,0.574 7.548,0.623 C3.475,0.672 0.214,4.013 0.263,8.085 C0.302,11.365 2.479,14.116 5.451,15.038 L5.624,27.802 L8.712,29.822 L10.984,27.288 L9.954,24.721 L10.932,22.978 L9.906,20.784 L10.877,18.415 L9.853,16.38 L10.017,14.973 C12.952,13.972 15.049,11.178 15.009,7.908 L15.009,7.908 Z M7.638,8.194 C6.538,8.207 5.636,7.326 5.622,6.225 C5.609,5.125 6.49,4.222 7.591,4.209 C8.691,4.196 9.594,5.077 9.607,6.177 C9.62,7.278 8.739,8.18 7.638,8.194 L7.638,8.194 Z"/><path id="Stroke-9" stroke="#FFF" d="M13.362,7.946 C13.362,11.109 10.798,13.672 7.636,13.672 C4.474,13.672 1.91,11.109 1.91,7.946 C1.91,4.784 4.474,2.22 7.636,2.22 C10.798,2.22 13.362,4.784 13.362,7.946 L13.362,7.946 Z M7.636,13.672 L7.636,26.735 L7.636,13.672 Z"/></g></g></g></svg>