<svg xmlns="http://www.w3.org/2000/svg" xmlns:xlink="http://www.w3.org/1999/xlink" width="27" height="54" version="1.1" viewBox="0 0 27 54"><title>Artboard 8</title><desc>Created with Sketch.</desc><g id="Page-1" fill="none" fill-rule="evenodd" stroke="none" stroke-width="1"><g id="Artboard-8"><g id="Group" fill="#141413" transform="translate(4.000000, 4.000000)"><path id="Fill-3" d="M16,10 L18.96,10 L18.96,12 L16,12 L16,10 Z"/><path id="Fill-4" d="M3.609,13.606 L5.398,13.606 L5.398,15.394 L3.609,15.394 L3.609,13.606 Z"/><path id="Fill-5" d="M16.292,15.394 L18.081,15.394 L18.081,17.183 L16.292,17.183 L16.292,15.394 Z"/><path id="Fill-6" d="M0,19 L9,19 L9,10 L0,10 L0,19 Z M2,12 L7,12 L7,17 L2,17 L2,12 Z"/><path id="Fill-7" d="M3.609,3.606 L5.398,3.606 L5.398,5.394 L3.609,5.394 L3.609,3.606 Z"/><path id="Fill-8" d="M0,9 L9,9 L9,0 L0,0 L0,9 Z M2,2 L7,2 L7,7 L2,7 L2,2 Z"/><path id="Fill-9" d="M13.61,3.606 L15.399,3.606 L15.399,5.394 L13.61,5.394 L13.61,3.606 Z"/><path id="Fill-10" d="M10,9 L19,9 L19,0 L10,0 L10,9 Z M12,2 L17,2 L17,7 L12,7 L12,2 Z"/><path id="Fill-11" d="M10,10 L13,10 L13,19 L10,19 L10,10 Z"/><path id="Fill-12" d="M18,13 L18,17 L14,17 L14,19 L19,19 L19,13 L18,13"/></g><g id="Group" fill="#BD1900" transform="translate(4.000000, 31.000000)"><path id="Fill-3" d="M16,10 L18.96,10 L18.96,12 L16,12 L16,10 Z"/><path id="Fill-4" d="M3.609,13.606 L5.398,13.606 L5.398,15.394 L3.609,15.394 L3.609,13.606 Z"/><path id="Fill-5" d="M16.292,15.394 L18.081,15.394 L18.081,17.183 L16.292,17.183 L16.292,15.394 Z"/><path id="Fill-6" d="M0,19 L9,19 L9,10 L0,10 L0,19 Z M2,12 L7,12 L7,17 L2,17 L2,12 Z"/><path id="Fill-7" d="M3.609,3.606 L5.398,3.606 L5.398,5.394 L3.609,5.394 L3.609,3.606 Z"/><path id="Fill-8" d="M0,9 L9,9 L9,0 L0,0 L0,9 Z M2,2 L7,2 L7,7 L2,7 L2,2 Z"/><path id="Fill-9" d="M13.61,3.606 L15.399,3.606 L15.399,5.394 L13.61,5.394 L13.61,3.606 Z"/><path id="Fill-10" d="M10,9 L19,9 L19,0 L10,0 L10,9 Z M12,2 L17,2 L17,7 L12,7 L12,2 Z"/><path id="Fill-11" d="M10,10 L13,10 L13,19 L10,19 L10,10 Z"/><path id="Fill-12" d="M18,13 L18,17 L14,17 L14,19 L19,19 L19,13 L18,13"/></g></g></g></svg>